<?xml version="1.0" standalone="no"?>
<!DOCTYPE svg PUBLIC "-//W3C//DTD SVG 20010904//EN"
 "http://www.w3.org/TR/2001/REC-SVG-20010904/DTD/svg10.dtd">
<svg version="1.0" xmlns="http://www.w3.org/2000/svg"
 width="282.000000pt" height="282.000000pt" viewBox="0 0 282.000000 282.000000"
 preserveAspectRatio="xMidYMid meet">
<metadata>
Created by potrace 1.14, written by Peter Selinger 2001-2017
</metadata>
<g transform="translate(0.000000,282.000000) scale(0.100000,-0.100000)"
fill="#000000" stroke="none">
<path d="M0 1410 l0 -1370 225 0 c212 0 225 1 225 18 0 10 3 22 7 25 3 4 8 19
9 34 3 22 1 25 -7 13 -8 -11 -9 -9 -4 10 19 70 22 100 11 111 -8 9 -8 10 2 4
11 -6 12 -3 3 12 -7 14 -7 23 0 30 6 6 12 58 14 114 2 57 6 138 10 179 3 41 8
97 10 123 2 27 -3 73 -11 103 -16 62 -17 80 -3 45 15 -38 20 -19 10 40 -10 57
-26 404 -22 478 1 24 6 52 12 62 5 11 14 38 19 61 5 24 14 61 20 83 6 22 11
48 11 58 0 9 4 15 10 12 5 -4 9 7 9 24 0 16 5 33 11 36 6 4 8 14 5 22 -4 11
-2 13 9 9 18 -7 20 5 3 22 -9 9 -8 12 5 12 9 0 17 -8 18 -17 1 -18 1 -18 15
27 5 13 6 13 15 0 8 -12 9 -11 5 5 -6 21 5 45 20 48 5 1 8 10 7 19 -2 12 2 15
13 11 9 -3 14 -13 11 -24 -4 -16 -2 -17 14 -9 16 9 17 14 7 35 -8 18 -14 22
-19 13 -7 -10 -11 -10 -21 0 -9 9 -9 12 0 12 7 0 12 7 12 15 0 24 -16 17 -29
-12 -8 -18 -9 -29 -1 -37 16 -16 12 -30 -5 -16 -8 7 -16 9 -16 4 -1 -5 -2 -13
-4 -19 -1 -5 -3 -16 -3 -22 -1 -7 -6 -13 -11 -13 -5 0 -7 17 -4 38 7 55 7 75
-2 97 -6 17 -5 17 9 -2 19 -26 41 -31 32 -7 -3 8 -2 12 4 9 6 -3 10 1 10 9 0
8 -5 18 -10 21 -16 10 -7 334 9 344 6 4 15 21 19 36 5 16 14 31 21 33 10 3 12
-5 6 -38 -6 -38 -4 -45 15 -60 18 -13 24 -30 27 -73 2 -30 -1 -58 -6 -62 -12
-7 -5 -29 26 -75 13 -19 23 -44 23 -55 1 -20 1 -20 12 0 6 11 22 33 35 48 12
16 23 40 23 55 0 25 1 24 21 -12 16 -31 19 -49 14 -83 -4 -30 -3 -43 6 -43 6
0 9 8 6 20 -6 23 27 48 38 30 9 -15 28 -12 22 3 -8 21 33 14 51 -9 13 -18 14
-17 8 10 -6 25 -5 28 7 18 8 -7 17 -9 20 -5 4 3 9 -2 13 -11 6 -15 8 -14 23 6
9 13 15 26 13 31 -4 13 17 8 25 -7 4 -7 18 -17 30 -20 19 -6 22 -4 16 11 -5
12 3 8 22 -11 17 -17 31 -24 33 -18 3 9 9 9 23 2 10 -6 19 -8 19 -4 0 3 6 1
14 -5 9 -8 28 -10 50 -5 26 4 36 3 36 -6 0 -9 11 -11 35 -7 20 3 33 2 30 -3
-3 -5 -1 -11 4 -14 5 -3 16 6 26 20 17 26 30 23 37 -8 3 -16 6 -17 31 -4 15 8
27 11 27 5 0 -12 37 -12 45 1 4 6 11 8 16 4 6 -4 6 -10 -1 -19 -8 -9 -4 -11
17 -7 16 3 34 13 41 24 7 10 21 18 30 17 10 0 12 -3 4 -6 -6 -2 -12 -12 -12
-21 0 -12 3 -13 12 -4 7 7 16 12 22 12 6 0 5 -5 -2 -12 -17 -17 -15 -33 3 -18
8 7 15 9 15 4 0 -4 7 1 15 12 8 11 15 14 15 7 0 -7 8 -13 19 -13 13 0 43 37
97 121 55 85 96 135 137 170 52 44 98 66 82 39 -3 -5 -1 -10 4 -10 6 0 11 -4
11 -9 0 -5 -9 -7 -20 -4 -12 3 -22 -1 -26 -10 -3 -9 -11 -14 -18 -11 -11 4
-66 -45 -69 -63 -1 -4 -6 -7 -10 -5 -5 1 -6 -2 -2 -8 10 -16 -6 -34 -17 -19
-6 10 -7 7 -3 -8 3 -13 2 -23 -3 -23 -5 0 -22 -16 -36 -35 -19 -25 -24 -40
-18 -51 8 -14 10 -14 17 2 5 11 9 22 9 25 1 3 9 14 20 24 18 19 18 19 11 -5
-4 -14 -11 -27 -15 -30 -19 -13 -28 -45 -15 -57 10 -9 14 -6 18 16 5 24 10 28
30 24 25 -5 28 2 28 61 0 16 7 35 16 42 14 10 15 16 5 38 -6 14 -7 28 -3 31 5
3 12 -2 15 -11 4 -9 9 -14 13 -11 3 4 12 2 19 -4 10 -9 15 -7 20 5 3 9 10 13
15 10 5 -3 9 -1 9 5 0 5 -4 13 -10 16 -20 12 -10 33 16 33 14 0 31 5 37 11 8
8 6 11 -7 11 -9 0 -15 4 -12 9 4 5 0 12 -6 14 -7 3 -3 6 9 6 12 1 26 -5 30
-13 4 -7 18 -18 30 -25 13 -6 22 -15 21 -19 -1 -4 2 -15 7 -25 4 -10 4 -85 0
-165 -4 -81 -9 -205 -11 -277 -4 -136 -4 -137 52 -260 35 -78 53 -137 63 -215
15 -115 16 -271 1 -349 -19 -103 -19 -202 -1 -209 9 -3 1 -9 -25 -17 l-39 -11
48 -22 c50 -23 64 -38 21 -22 -38 15 -42 13 -40 -20 2 -22 -2 -29 -11 -26 -7
3 -13 1 -13 -5 0 -6 18 -18 40 -26 27 -11 37 -19 28 -24 -7 -4 -15 -3 -19 3
-4 6 -12 7 -19 3 -8 -5 -2 -18 22 -43 18 -20 23 -28 10 -17 -22 18 -24 19 -33
2 -6 -10 -14 -15 -19 -12 -6 4 -7 -7 -3 -26 5 -25 3 -30 -7 -24 -8 5 -11 3 -8
-6 3 -8 10 -13 16 -12 5 1 8 -7 4 -19 -3 -14 -1 -19 6 -14 8 5 12 0 12 -13 0
-12 4 -21 10 -21 5 0 12 -11 16 -25 3 -14 10 -25 15 -25 5 0 9 -7 9 -17 0 -21
28 -118 46 -161 8 -18 14 -42 14 -52 0 -11 4 -20 9 -20 5 0 11 -10 13 -22 3
-23 5 -23 186 -26 l182 -2 0 1370 0 1370 -1410 0 -1410 0 0 -1370z m748 979
c-3 -8 -7 -3 -11 10 -4 17 -3 21 5 13 5 -5 8 -16 6 -23z m102 -24 c7 -9 8 -15
2 -15 -5 0 -12 7 -16 15 -3 8 -4 15 -2 15 2 0 9 -7 16 -15z m-33 -57 c-3 -8
-6 -5 -6 6 -1 11 2 17 5 13 3 -3 4 -12 1 -19z m69 -5 c-7 -7 -26 7 -26 19 0 6
6 6 15 -2 9 -7 13 -15 11 -17z m47 -106 c16 -20 26 -41 23 -46 -4 -5 6 -19 21
-30 16 -11 22 -21 15 -21 -20 0 -74 61 -68 77 3 7 1 13 -5 13 -6 0 -7 5 -4 10
3 6 1 10 -4 10 -6 0 -11 6 -11 13 0 7 -9 20 -20 30 -12 10 -20 12 -20 5 0 -6
-3 -9 -6 -5 -4 3 -4 13 0 22 6 18 16 8 79 -78z m-108 17 c-8 -9 -15 -23 -15
-32 0 -13 3 -12 16 6 8 12 19 22 25 22 15 0 10 -54 -7 -78 -9 -13 -13 -30 -10
-38 3 -9 -1 -22 -9 -30 -13 -14 -17 -14 -30 0 -17 17 -20 30 -4 20 8 -4 9 3 5
22 -8 42 -16 132 -10 112 7 -24 20 -23 27 3 3 12 10 18 16 14 8 -4 6 -11 -4
-21z m173 -55 c-3 -8 -7 -3 -11 10 -4 17 -3 21 5 13 5 -5 8 -16 6 -23z m-224
-44 c3 -8 1 -15 -4 -15 -6 0 -10 7 -10 15 0 8 2 15 4 15 2 0 6 -7 10 -15z m82
-22 c-10 -10 -19 5 -10 18 6 11 8 11 12 0 2 -7 1 -15 -2 -18z m-379 -1065 c-3
-8 -6 -5 -6 6 -1 11 2 17 5 13 3 -3 4 -12 1 -19z m-410 -50 c-3 -8 -6 -5 -6 6
-1 11 2 17 5 13 3 -3 4 -12 1 -19z m2303 -168 c0 -5 -4 -10 -10 -10 -5 0 -10
5 -10 10 0 6 5 10 10 10 6 0 10 -4 10 -10z m-2043 -252 c-3 -8 -6 -5 -6 6 -1
11 2 17 5 13 3 -3 4 -12 1 -19z m0 -60 c-3 -8 -6 -5 -6 6 -1 11 2 17 5 13 3
-3 4 -12 1 -19z"/>
<path d="M930 2171 c0 -5 5 -13 10 -16 6 -3 10 -2 10 4 0 5 -4 13 -10 16 -5 3
-10 2 -10 -4z"/>
<path d="M830 2170 c0 -19 3 -21 12 -12 9 9 9 15 0 24 -9 9 -12 7 -12 -12z"/>
<path d="M680 2258 c0 -23 3 -39 6 -36 9 10 12 78 3 78 -5 0 -9 -19 -9 -42z"/>
<path d="M715 2256 c9 -14 12 -26 6 -28 -6 -2 -4 -11 4 -21 12 -17 13 -15 11
16 -3 38 -12 57 -27 57 -5 0 -2 -11 6 -24z"/>
<path d="M2160 2250 c-8 -5 -11 -12 -7 -16 4 -4 13 -2 19 4 15 15 7 24 -12 12z"/>
<path d="M2166 2205 c-9 -14 -13 -25 -8 -25 5 0 14 11 20 25 6 14 10 25 8 25
-2 0 -11 -11 -20 -25z"/>
<path d="M701 2163 c7 -10 15 -20 16 -22 2 -2 3 3 3 11 0 9 -7 19 -16 22 -15
6 -15 4 -3 -11z"/>
<path d="M676 2157 c3 -10 9 -15 12 -12 3 3 0 11 -7 18 -10 9 -11 8 -5 -6z"/>
<path d="M2056 2151 c-4 -7 -5 -15 -2 -18 9 -9 19 4 14 18 -4 11 -6 11 -12 0z"/>
<path d="M717 2124 c-4 -4 -7 -14 -7 -23 0 -11 3 -12 11 -4 6 6 10 16 7 23 -2
6 -7 8 -11 4z"/>
<path d="M681 2104 c0 -11 3 -14 6 -6 3 7 2 16 -1 19 -3 4 -6 -2 -5 -13z"/>
<path d="M2043 2095 c-18 -19 -16 -35 3 -35 8 0 13 4 10 9 -4 5 0 11 6 14 9 3
10 8 3 15 -7 7 -14 6 -22 -3z"/>
<path d="M880 2081 c0 -6 4 -13 10 -16 6 -3 7 1 4 9 -7 18 -14 21 -14 7z"/>
<path d="M2215 2080 c-3 -5 -1 -10 4 -10 6 0 11 5 11 10 0 6 -2 10 -4 10 -3 0
-8 -4 -11 -10z"/>
<path d="M720 2039 c0 -11 4 -18 10 -14 5 3 7 12 3 20 -7 21 -13 19 -13 -6z"/>
<path d="M846 2044 c-17 -17 -22 -59 -6 -49 6 3 10 12 10 20 0 7 7 21 16 29 8
9 11 16 5 16 -5 0 -17 -7 -25 -16z"/>
<path d="M1896 2036 c5 -13 4 -17 -4 -12 -7 4 -12 1 -12 -9 0 -9 -4 -14 -9
-11 -13 9 -32 -19 -25 -38 5 -13 13 -7 36 25 22 31 27 44 18 53 -8 8 -9 6 -4
-8z"/>
<path d="M768 2023 c-3 -13 1 -31 10 -44 15 -21 14 -22 -2 -16 -16 6 -17 3
-12 -19 5 -17 3 -23 -4 -19 -5 3 -10 1 -10 -5 0 -20 24 -5 38 24 9 18 10 31 4
39 -6 7 -12 23 -14 37 -3 24 -4 24 -10 3z"/>
<path d="M1145 2030 c3 -5 8 -10 11 -10 2 0 4 5 4 10 0 6 -5 10 -11 10 -5 0
-7 -4 -4 -10z"/>
<path d="M665 2000 c-4 -12 -5 -24 -2 -27 3 -2 8 5 12 17 4 12 5 24 2 27 -3 2
-8 -5 -12 -17z"/>
<path d="M2177 2013 c-4 -3 -7 -11 -7 -17 0 -6 5 -5 12 2 6 6 9 14 7 17 -3 3
-9 2 -12 -2z"/>
<path d="M865 1999 c-4 -6 -5 -12 -2 -15 2 -3 7 2 10 11 7 17 1 20 -8 4z"/>
<path d="M2070 1995 c-7 -9 -8 -15 -2 -15 5 0 12 7 16 15 3 8 4 15 2 15 -2 0
-9 -7 -16 -15z"/>
<path d="M696 1983 c-6 -14 -5 -15 5 -6 7 7 10 15 7 18 -3 3 -9 -2 -12 -12z"/>
<path d="M815 1954 c1 -20 10 -42 20 -52 18 -16 18 -16 2 9 -9 15 -13 36 -11
47 3 11 2 22 -3 25 -5 3 -8 -10 -8 -29z"/>
<path d="M2145 1979 c-4 -6 -5 -12 -2 -15 2 -3 7 2 10 11 7 17 1 20 -8 4z"/>
<path d="M2060 1948 c-12 -22 -12 -22 6 -6 10 10 15 20 12 24 -4 3 -12 -5 -18
-18z"/>
<path d="M1445 1930 c3 -5 8 -10 11 -10 2 0 4 5 4 10 0 6 -5 10 -11 10 -5 0
-7 -4 -4 -10z"/>
<path d="M786 1904 c-4 -9 -4 -19 -1 -22 2 -3 7 3 11 12 4 9 4 19 1 22 -2 3
-7 -3 -11 -12z"/>
<path d="M590 1710 c0 -5 5 -10 10 -10 6 0 10 5 10 10 0 6 -4 10 -10 10 -5 0
-10 -4 -10 -10z"/>
<path d="M1188 1504 c-3 -3 -23 -8 -44 -10 -22 -3 -48 -7 -59 -9 -73 -13 -92
-18 -107 -26 -12 -7 -18 -4 -21 9 -4 16 -5 16 -6 0 -1 -19 -43 -34 -60 -23 -6
3 -11 1 -11 -4 0 -6 -5 -11 -11 -11 -17 0 -40 -28 -29 -35 5 -3 10 -1 10 6 0
7 10 5 28 -7 26 -17 27 -17 12 1 -16 20 -16 20 38 -2 7 -3 12 3 12 18 0 12 3
19 8 15 7 -8 8 -10 11 -43 2 -17 3 -17 10 0 6 17 11 16 48 -15 23 -18 42 -39
42 -46 1 -7 5 -11 10 -8 5 3 35 -8 67 -24 64 -31 164 -51 164 -31 0 11 -18 15
-53 12 -9 -1 -20 5 -23 14 -4 9 -13 14 -20 11 -18 -7 -85 24 -78 36 3 4 -4 8
-16 8 -11 0 -32 11 -46 25 -14 14 -29 25 -34 25 -6 0 -10 11 -10 24 0 18 7 26
28 31 59 16 110 21 119 11 2 -2 -2 -17 -11 -34 -8 -16 -12 -33 -8 -37 4 -4 7
-14 8 -23 3 -47 5 -52 24 -52 11 0 20 5 20 11 0 5 -4 7 -10 4 -5 -3 -10 1 -10
9 0 9 4 16 10 16 11 0 34 77 31 103 -1 9 3 17 8 17 6 0 11 -4 11 -10 0 -5 9
-10 20 -10 10 0 25 -10 31 -22 6 -13 22 -35 36 -49 16 -17 23 -35 21 -52 -5
-37 -16 -44 -32 -21 -13 17 -14 15 -6 -21 5 -22 9 -41 10 -42 0 -2 0 -4 1 -5
0 -2 2 -11 4 -21 6 -30 15 -32 15 -4 0 15 -5 27 -11 27 -8 0 -7 5 2 16 11 14
14 13 26 -10 8 -14 18 -26 23 -26 14 0 12 14 -2 28 -8 8 -8 12 -1 12 23 0 40
-79 23 -110 -6 -11 -16 -20 -22 -20 -7 0 -7 4 -1 13 12 15 13 48 1 41 -5 -3
-6 -9 -3 -14 3 -4 -1 -13 -9 -19 -11 -9 -15 -9 -19 1 -3 7 -4 3 -4 -9 1 -13 7
-23 13 -23 7 0 14 -6 17 -12 3 -9 11 -4 25 12 l20 25 -5 -28 c-3 -17 -1 -27 6
-27 7 0 9 5 5 11 -4 7 0 9 13 5 17 -6 19 -1 21 51 2 87 -14 134 -64 188 -24
27 -46 56 -49 67 -4 10 -11 18 -16 18 -5 0 -9 6 -9 14 0 8 -9 18 -20 21 -11 3
-20 11 -20 17 0 6 -8 8 -18 6 -10 -3 -27 1 -37 8 -21 15 -29 17 -37 8z m12
-33 c0 -6 -4 -13 -10 -16 -5 -3 -10 1 -10 9 0 9 5 16 10 16 6 0 10 -4 10 -9z"/>
<path d="M1955 1481 c-3 -11 -16 -23 -28 -27 -86 -25 -186 -138 -194 -218 -6
-55 34 -140 69 -149 23 -6 23 -6 3 11 -24 20 -47 80 -34 88 5 3 9 10 9 15 0 6
-4 8 -9 5 -9 -6 -21 16 -21 40 0 20 69 49 83 35 6 -6 21 -11 34 -11 13 0 23
-4 23 -10 0 -14 97 -13 106 1 5 9 -1 10 -20 5 -19 -4 -32 -2 -43 10 -9 9 -26
14 -40 11 -12 -2 -23 -1 -23 4 0 4 -7 15 -16 24 -21 21 -11 59 23 91 22 20 36
24 80 23 54 -2 61 -7 42 -26 -13 -13 -8 -95 7 -100 7 -2 11 2 11 9 -1 7 2 34
6 59 11 65 34 69 93 16 l44 -40 -26 -28 c-14 -15 -45 -32 -69 -39 -32 -9 -42
-16 -38 -27 5 -14 8 -13 20 3 11 15 16 16 22 6 6 -10 10 -10 21 3 7 8 21 15
31 15 11 0 19 6 19 14 0 8 4 17 9 20 5 4 7 -4 4 -16 l-6 -23 20 23 c11 12 25
22 32 22 6 0 11 7 11 17 0 19 -77 93 -97 93 -8 0 -11 5 -8 10 3 6 -2 10 -12
10 -10 0 -29 7 -41 16 -14 10 -36 14 -53 12 -22 -4 -29 -1 -25 9 3 7 1 13 -4
13 -5 0 -11 -9 -15 -19z"/>
<path d="M1879 1473 c-13 -16 -12 -17 4 -4 9 7 17 15 17 17 0 8 -8 3 -21 -13z"/>
<path d="M1106 1404 c-9 -23 -7 -36 3 -30 12 8 21 46 11 46 -4 0 -11 -7 -14
-16z"/>
<path d="M1246 1387 c3 -10 9 -15 12 -12 3 3 0 11 -7 18 -10 9 -11 8 -5 -6z"/>
<path d="M1226 1365 c-3 -9 -6 -22 -5 -28 0 -7 5 -1 10 12 5 13 8 26 5 28 -2
2 -6 -3 -10 -12z"/>
<path d="M1250 1348 c0 -9 5 -20 10 -23 13 -8 13 5 0 25 -8 13 -10 13 -10 -2z"/>
<path d="M2031 1324 c0 -11 3 -14 6 -6 3 7 2 16 -1 19 -3 4 -6 -2 -5 -13z"/>
<path d="M2221 1313 c-9 -10 -10 -18 -3 -25 7 -7 12 -3 17 12 9 27 4 32 -14
13z"/>
<path d="M2253 1283 c0 -20 15 -43 28 -43 15 0 10 26 -9 43 -17 16 -19 16 -19
0z"/>
<path d="M1785 1230 c-3 -5 -2 -10 4 -10 5 0 13 5 16 10 3 6 2 10 -4 10 -5 0
-13 -4 -16 -10z"/>
<path d="M1357 1083 c-11 -11 -8 -21 9 -27 13 -5 14 -4 6 7 -7 8 -9 17 -5 20
3 4 4 7 1 7 -2 0 -8 -3 -11 -7z"/>
<path d="M1542 1027 c-12 -14 -2 -74 11 -69 18 6 26 -1 45 -38 11 -22 16 -40
11 -40 -5 0 -9 -4 -9 -9 0 -5 7 -8 16 -7 9 0 19 -5 22 -13 3 -8 0 -11 -7 -7
-7 4 -11 0 -11 -12 0 -23 -29 -37 -44 -22 -17 17 -27 11 -14 -9 14 -22 52 -33
67 -18 7 7 9 3 8 -11 0 -11 -4 -19 -7 -18 -3 2 -13 -4 -23 -14 -17 -17 -17
-17 8 -12 15 2 32 13 38 23 17 27 36 23 48 -8 10 -26 11 -27 24 -10 12 16 13
16 20 -10 5 -15 7 -32 6 -38 0 -5 8 1 19 14 19 23 21 23 40 6 10 -9 23 -14 29
-11 5 4 14 -2 20 -11 5 -10 13 -15 17 -11 4 4 12 0 19 -9 7 -9 17 -13 24 -9 9
6 9 12 -3 25 -9 10 -13 22 -9 26 5 5 0 3 -9 -4 -15 -11 -21 -10 -44 8 -15 12
-32 21 -39 21 -17 0 -38 27 -27 34 5 3 20 -3 32 -14 27 -24 38 -26 20 -5 -17
20 4 20 24 -1 9 -8 13 -21 10 -27 -4 -8 -2 -7 7 1 19 18 -1 47 -33 47 -14 1
-40 11 -59 22 -34 22 -52 22 -31 1 25 -25 11 -29 -25 -8 -28 17 -38 18 -44 8
-5 -7 -6 9 -4 35 4 43 46 117 66 117 4 0 19 17 35 38 15 20 21 31 12 24 -11
-9 -18 -10 -23 -2 -4 6 -14 10 -23 9 -34 -3 -44 1 -38 16 3 9 0 15 -9 15 -9 0
-15 -9 -15 -22 0 -17 -3 -20 -9 -9 -5 8 -17 12 -28 9 -10 -3 -24 1 -31 9 -16
17 -66 17 -80 0z"/>
<path d="M1420 950 c0 -5 5 -10 10 -10 6 0 10 5 10 10 0 6 -4 10 -10 10 -5 0
-10 -4 -10 -10z"/>
<path d="M1510 939 c0 -5 5 -7 10 -4 6 3 10 8 10 11 0 2 -4 4 -10 4 -5 0 -10
-5 -10 -11z"/>
<path d="M1815 940 c4 -6 11 -8 16 -5 14 9 11 15 -7 15 -8 0 -12 -5 -9 -10z"/>
<path d="M695 930 c-3 -6 1 -7 9 -4 18 7 21 14 7 14 -6 0 -13 -4 -16 -10z"/>
<path d="M1546 914 c-5 -14 -4 -15 9 -4 17 14 19 20 6 20 -5 0 -12 -7 -15 -16z"/>
<path d="M1515 880 c-3 -5 -1 -10 4 -10 6 0 11 5 11 10 0 6 -2 10 -4 10 -3 0
-8 -4 -11 -10z"/>
<path d="M1749 871 c11 -7 11 -9 0 -14 -10 -3 -8 -7 6 -12 11 -4 28 -17 37
-29 l17 -21 -6 23 c-3 13 -12 26 -19 29 -8 3 -14 11 -14 19 0 8 -8 14 -17 14
-14 0 -15 -2 -4 -9z"/>
<path d="M598 863 c7 -3 16 -2 19 1 4 3 -2 6 -13 5 -11 0 -14 -3 -6 -6z"/>
<path d="M560 845 c-6 -8 -10 -20 -7 -27 4 -9 6 -7 6 4 1 9 9 18 19 20 11 2
13 6 6 11 -7 4 -17 0 -24 -8z"/>
<path d="M1478 823 c6 -2 9 -10 6 -15 -4 -7 -2 -8 5 -4 13 9 5 26 -12 25 -9 0
-8 -2 1 -6z"/>
<path d="M1820 820 c0 -6 7 -10 15 -10 8 0 15 2 15 4 0 2 -7 6 -15 10 -8 3
-15 1 -15 -4z"/>
<path d="M1878 793 c7 -3 16 -2 19 1 4 3 -2 6 -13 5 -11 0 -14 -3 -6 -6z"/>
<path d="M1498 757 c-32 -16 -58 -34 -58 -39 0 -5 16 0 35 12 19 12 35 17 35
11 0 -6 5 -11 10 -11 6 0 10 7 10 16 0 11 6 14 20 9 20 -6 25 2 12 20 -4 7
-27 0 -64 -18z"/>
<path d="M1654 738 c-5 -7 -2 -9 7 -4 8 4 4 -1 -8 -10 -35 -25 -27 -39 7 -14
17 12 28 26 25 31 -8 12 -22 11 -31 -3z"/>
<path d="M1925 710 c3 -5 10 -10 16 -10 5 0 9 5 9 10 0 6 -7 10 -16 10 -8 0
-12 -4 -9 -10z"/>
<path d="M1276 604 c-9 -24 -2 -26 12 -4 7 11 8 20 3 20 -5 0 -12 -7 -15 -16z"/>
<path d="M1230 565 c-10 -12 -10 -19 -2 -27 9 -9 12 -8 12 5 0 9 5 17 10 17 6
0 10 5 10 10 0 15 -16 12 -30 -5z"/>
<path d="M1295 540 c3 -5 8 -10 11 -10 2 0 4 5 4 10 0 6 -5 10 -11 10 -5 0 -7
-4 -4 -10z"/>
<path d="M2030 245 c-7 -9 -11 -17 -9 -20 3 -2 10 5 17 15 14 24 10 26 -8 5z"/>
</g>
</svg>
